# xmcd
#
# Track frame offsets:
#	150
#	5522
#	15882
#	29625
#	45497
#	58860
#	71605
#	82825
#	92752
#	102980
#	113220
#	125795
#	149715
#
# Disc length: 2159 seconds
#
# Revision: 0
# Processed by: cddbd v1.5.2PL0 Copyright (c) Steve Scherf et al.
# Submitted via: audiograbber 1.83.01
#
DISCID=af086d0d
DTITLE=Everly Brothers - Roots
DYEAR=1968
DGENRE=Country Rock
TTITLE0=Everly Family - Introduction (1952)
TTITLE1=Everly Brothers - Mama Tried (1968)
TTITLE2=Everly Brothers - Less Of Me (1968)
TTITLE3=Everly Brothers - T For Texas (1968)
TTITLE4=Everly Brothers - I Wonder If I Care As Much (1968)
TTITLE5=Everly Brothers - Ventura Boulevard (1968)
TTITLE6=Everly Brothers, Everly Family - Shady Grove (1968)
TTITLE7=Everly Brothers - Illinois (1968)
TTITLE8=Everly Brothers - Living Too Close To The Ground (1968)
TTITLE9=Everly Brothers - You Done Me Wrong (1968)
TTITLE10=Everly Brothers - Turn Around (1968)
TTITLE11=Everly Family, Everly Brothers - Sing Me Back Home (1968)
TTITLE12=Everly Family - Montage (1952)
EXTD=Artist names shown correctly.\nTrack dates provided.
EXTT0=
EXTT1=
EXTT2=
EXTT3=
EXTT4=
EXTT5=
EXTT6=
EXTT7=
EXTT8=
EXTT9=
EXTT10=
EXTT11=
EXTT12=
PLAYORDER=
